# xmcd
#
# Track frame offsets:
#	150
#	19391
#	44253
#	67222
#	91043
#	109560
#	128239
#	146760
#	170981
#
# Disc length: 2487 seconds
#
# Revision: 0
# Processed by: cddbd v1.5.2PL0 Copyright (c) Steve Scherf et al.
# Submitted via: FairStars CD Ripper 1.90
#
DISCID=8209b509
DTITLE=Laura Marling - Semper Femina Live
DYEAR=2017
DGENRE=Folk Rock
TTITLE0=Soothing
TTITLE1=The Valley
TTITLE2=Wild Fire
TTITLE3=Don't Pass Me By
TTITLE4=Always This Way
TTITLE5=Wild Once
TTITLE6=Next Time
TTITLE7=Nouel
TTITLE8=Nothing Not Nearly
EXTD=
EXTT0=
EXTT1=
EXTT2=
EXTT3=
EXTT4=
EXTT5=
EXTT6=
EXTT7=
EXTT8=
PLAYORDER=
